<svg xmlns="http://www.w3.org/2000/svg" viewBox="0 0 64 64">
  <rect width="64" height="64" rx="15" fill="#e3ecdf"/>
  <path d="M14 26 12 10l15 10M50 26l2-16-15 10" fill="#4c4b4b" stroke="#343737" stroke-width="3" stroke-linejoin="round"/>
  <path d="m17 19-1-6 7 6M47 19l1-6-7 6" fill="#d8a8a0"/>
  <path d="M14 31c0-11 8-18 18-18s18 7 18 18v8c0 10-8 17-18 17s-18-7-18-17z" fill="#535252" stroke="#343737" stroke-width="3"/>
  <path d="M28 15c2-1 6-1 8 0l2 25-6 6-6-6z" fill="#e7bd91"/>
  <path d="M19 42c4 0 8 2 13 7-5 6-14 5-17-1zM45 42c-4 0-8 2-13 7 5 6 14 5 17-1z" fill="#f8f4e9"/>
  <ellipse cx="23" cy="32" rx="5" ry="6" fill="#d9ac4b" stroke="#2d302f" stroke-width="2"/>
  <ellipse cx="41" cy="32" rx="5" ry="6" fill="#d9ac4b" stroke="#2d302f" stroke-width="2"/>
  <path d="M23 29v6M41 29v6" stroke="#242827" stroke-width="2" stroke-linecap="round"/>
  <path d="m28 40 4 3 4-3-4-2z" fill="#b97670" stroke="#343737" stroke-width="1.5" stroke-linejoin="round"/>
</svg>
